; NON-PLATED HOLES START AT T1
; THROUGH (PLATED) HOLES START AT T100
M48
INCH
T100C0.038000
T101C0.015748
%
T100
X012181Y005119
X011181Y006119
X001181Y003119
X011181Y005119
X001181Y005119
X011181Y008119
X001181Y008119
X006181Y014119
X002181Y010119
X002181Y001119
X001181Y007119
X002181Y003119
X007181Y014119
X011181Y009119
X012181Y004119
X012181Y009119
X002181Y002119
X001181Y010119
X009181Y014119
X012181Y003119
X012181Y002119
X008181Y014119
X012181Y010119
X012181Y008119
X002181Y008119
X012181Y001119
X002181Y006119
X001181Y001119
X001181Y009119
X001181Y006119
X002181Y004119
X002181Y009119
X012181Y007119
X002181Y007119
X011181Y007119
X011181Y004119
X012181Y006119
X001181Y004119
X002181Y005119
X005181Y014119
X001181Y002119
X011181Y002119
X011181Y010119
X011181Y003119
X011181Y001119
T101
X006181Y007119
X005181Y008119
X008175Y006119
X006181Y006119
X009186Y007116
X005181Y004119
T00
M30
