G04 MADE WITH FRITZING*
G04 WWW.FRITZING.ORG*
G04 DOUBLE SIDED*
G04 HOLES PLATED*
G04 CONTOUR ON CENTER OF CONTOUR VECTOR*
%ASAXBY*%
%FSLAX23Y23*%
%MOIN*%
%OFA0B0*%
%SFA1.0B1.0*%
%ADD10C,0.088000*%
%ADD11C,0.049370*%
%LNMASK1*%
G90*
G70*
G54D10*
X518Y1412D03*
X618Y1412D03*
X718Y1412D03*
X818Y1412D03*
X918Y1412D03*
X118Y1012D03*
X118Y912D03*
X118Y812D03*
X118Y712D03*
X118Y612D03*
X118Y512D03*
X118Y412D03*
X118Y312D03*
X118Y212D03*
X118Y112D03*
X118Y1012D03*
X118Y912D03*
X118Y812D03*
X118Y712D03*
X118Y612D03*
X118Y512D03*
X118Y412D03*
X118Y312D03*
X118Y212D03*
X118Y112D03*
X218Y112D03*
X218Y212D03*
X218Y312D03*
X218Y412D03*
X218Y512D03*
X218Y612D03*
X218Y712D03*
X218Y812D03*
X218Y912D03*
X218Y1012D03*
X1118Y1012D03*
X1118Y912D03*
X1118Y812D03*
X1118Y712D03*
X1118Y612D03*
X1118Y512D03*
X1118Y412D03*
X1118Y312D03*
X1118Y212D03*
X1118Y112D03*
X1118Y1012D03*
X1118Y912D03*
X1118Y812D03*
X1118Y712D03*
X1118Y612D03*
X1118Y512D03*
X1118Y412D03*
X1118Y312D03*
X1118Y212D03*
X1118Y112D03*
X1218Y112D03*
X1218Y212D03*
X1218Y312D03*
X1218Y412D03*
X1218Y512D03*
X1218Y612D03*
X1218Y712D03*
X1218Y812D03*
X1218Y912D03*
X1218Y1012D03*
G54D11*
X618Y612D03*
X818Y612D03*
X618Y712D03*
X919Y712D03*
X518Y412D03*
X518Y812D03*
G04 End of Mask1*
M02*