G04 MADE WITH FRITZING*
G04 WWW.FRITZING.ORG*
G04 DOUBLE SIDED*
G04 HOLES PLATED*
G04 CONTOUR ON CENTER OF CONTOUR VECTOR*
%ASAXBY*%
%FSLAX23Y23*%
%MOIN*%
%OFA0B0*%
%SFA1.0B1.0*%
%ADD10C,0.075000*%
%ADD11C,0.078000*%
%ADD12C,0.039370*%
%ADD13C,0.024000*%
%LNCOPPER0*%
G90*
G70*
G54D10*
X1034Y1432D03*
G54D11*
X518Y1412D03*
X618Y1412D03*
X718Y1412D03*
X818Y1412D03*
X918Y1412D03*
X118Y1012D03*
X118Y912D03*
X118Y812D03*
X118Y712D03*
X118Y612D03*
X118Y512D03*
X118Y412D03*
X118Y312D03*
X118Y212D03*
X118Y112D03*
X118Y1012D03*
X118Y912D03*
X118Y812D03*
X118Y712D03*
X118Y612D03*
X118Y512D03*
X118Y412D03*
X118Y312D03*
X118Y212D03*
X118Y112D03*
X218Y112D03*
X218Y212D03*
X218Y312D03*
X218Y412D03*
X218Y512D03*
X218Y612D03*
X218Y712D03*
X218Y812D03*
X218Y912D03*
X218Y1012D03*
X1118Y1012D03*
X1118Y912D03*
X1118Y812D03*
X1118Y712D03*
X1118Y612D03*
X1118Y512D03*
X1118Y412D03*
X1118Y312D03*
X1118Y212D03*
X1118Y112D03*
X1118Y1012D03*
X1118Y912D03*
X1118Y812D03*
X1118Y712D03*
X1118Y612D03*
X1118Y512D03*
X1118Y412D03*
X1118Y312D03*
X1118Y212D03*
X1118Y112D03*
X1218Y112D03*
X1218Y212D03*
X1218Y312D03*
X1218Y412D03*
X1218Y512D03*
X1218Y612D03*
X1218Y712D03*
X1218Y812D03*
X1218Y912D03*
X1218Y1012D03*
G54D12*
X618Y612D03*
X818Y612D03*
X618Y712D03*
X919Y712D03*
X518Y412D03*
X518Y812D03*
G54D13*
X618Y1312D02*
X119Y1312D01*
D02*
X119Y1312D02*
X118Y1031D01*
D02*
X618Y1393D02*
X618Y1312D01*
D02*
X618Y1312D02*
X1218Y1312D01*
D02*
X1218Y1312D02*
X1218Y1031D01*
D02*
X618Y1393D02*
X618Y1312D01*
D02*
X618Y1312D02*
X1018Y1312D01*
D02*
X1018Y1312D02*
X1018Y413D01*
D02*
X618Y1393D02*
X618Y1312D01*
D02*
X1018Y413D02*
X1099Y412D01*
D02*
X518Y420D02*
X518Y804D01*
D02*
X810Y612D02*
X626Y612D01*
D02*
X911Y712D02*
X626Y712D01*
G36*
X40Y1489D02*
X40Y1461D01*
X924Y1461D01*
X924Y1459D01*
X932Y1459D01*
X932Y1457D01*
X938Y1457D01*
X938Y1455D01*
X942Y1455D01*
X942Y1453D01*
X946Y1453D01*
X946Y1451D01*
X948Y1451D01*
X948Y1449D01*
X950Y1449D01*
X950Y1447D01*
X952Y1447D01*
X952Y1445D01*
X954Y1445D01*
X954Y1443D01*
X956Y1443D01*
X956Y1441D01*
X958Y1441D01*
X958Y1439D01*
X960Y1439D01*
X960Y1435D01*
X962Y1435D01*
X962Y1431D01*
X964Y1431D01*
X964Y1425D01*
X966Y1425D01*
X966Y1413D01*
X968Y1413D01*
X968Y1409D01*
X966Y1409D01*
X966Y1399D01*
X964Y1399D01*
X964Y1391D01*
X962Y1391D01*
X962Y1389D01*
X960Y1389D01*
X960Y1385D01*
X958Y1385D01*
X958Y1383D01*
X956Y1383D01*
X956Y1379D01*
X954Y1379D01*
X954Y1377D01*
X952Y1377D01*
X952Y1375D01*
X950Y1375D01*
X950Y1373D01*
X946Y1373D01*
X946Y1371D01*
X944Y1371D01*
X944Y1369D01*
X940Y1369D01*
X940Y1367D01*
X936Y1367D01*
X936Y1365D01*
X930Y1365D01*
X930Y1363D01*
X1290Y1363D01*
X1290Y1489D01*
X40Y1489D01*
G37*
D02*
G36*
X40Y1461D02*
X40Y1363D01*
X506Y1363D01*
X506Y1365D01*
X500Y1365D01*
X500Y1367D01*
X496Y1367D01*
X496Y1369D01*
X492Y1369D01*
X492Y1371D01*
X490Y1371D01*
X490Y1373D01*
X486Y1373D01*
X486Y1375D01*
X484Y1375D01*
X484Y1377D01*
X482Y1377D01*
X482Y1379D01*
X480Y1379D01*
X480Y1383D01*
X478Y1383D01*
X478Y1385D01*
X476Y1385D01*
X476Y1389D01*
X474Y1389D01*
X474Y1393D01*
X472Y1393D01*
X472Y1399D01*
X470Y1399D01*
X470Y1423D01*
X472Y1423D01*
X472Y1431D01*
X474Y1431D01*
X474Y1435D01*
X476Y1435D01*
X476Y1437D01*
X478Y1437D01*
X478Y1441D01*
X480Y1441D01*
X480Y1443D01*
X482Y1443D01*
X482Y1445D01*
X484Y1445D01*
X484Y1447D01*
X486Y1447D01*
X486Y1449D01*
X488Y1449D01*
X488Y1451D01*
X490Y1451D01*
X490Y1453D01*
X494Y1453D01*
X494Y1455D01*
X498Y1455D01*
X498Y1457D01*
X504Y1457D01*
X504Y1459D01*
X512Y1459D01*
X512Y1461D01*
X40Y1461D01*
G37*
D02*
G36*
X524Y1461D02*
X524Y1459D01*
X532Y1459D01*
X532Y1457D01*
X538Y1457D01*
X538Y1455D01*
X542Y1455D01*
X542Y1453D01*
X546Y1453D01*
X546Y1451D01*
X548Y1451D01*
X548Y1449D01*
X550Y1449D01*
X550Y1447D01*
X552Y1447D01*
X552Y1445D01*
X554Y1445D01*
X554Y1443D01*
X556Y1443D01*
X556Y1441D01*
X558Y1441D01*
X558Y1439D01*
X578Y1439D01*
X578Y1441D01*
X580Y1441D01*
X580Y1443D01*
X582Y1443D01*
X582Y1445D01*
X584Y1445D01*
X584Y1447D01*
X586Y1447D01*
X586Y1449D01*
X588Y1449D01*
X588Y1451D01*
X590Y1451D01*
X590Y1453D01*
X594Y1453D01*
X594Y1455D01*
X598Y1455D01*
X598Y1457D01*
X604Y1457D01*
X604Y1459D01*
X612Y1459D01*
X612Y1461D01*
X524Y1461D01*
G37*
D02*
G36*
X624Y1461D02*
X624Y1459D01*
X632Y1459D01*
X632Y1457D01*
X638Y1457D01*
X638Y1455D01*
X642Y1455D01*
X642Y1453D01*
X646Y1453D01*
X646Y1451D01*
X648Y1451D01*
X648Y1449D01*
X650Y1449D01*
X650Y1447D01*
X652Y1447D01*
X652Y1445D01*
X654Y1445D01*
X654Y1443D01*
X656Y1443D01*
X656Y1441D01*
X658Y1441D01*
X658Y1439D01*
X678Y1439D01*
X678Y1441D01*
X680Y1441D01*
X680Y1443D01*
X682Y1443D01*
X682Y1445D01*
X684Y1445D01*
X684Y1447D01*
X686Y1447D01*
X686Y1449D01*
X688Y1449D01*
X688Y1451D01*
X690Y1451D01*
X690Y1453D01*
X694Y1453D01*
X694Y1455D01*
X698Y1455D01*
X698Y1457D01*
X704Y1457D01*
X704Y1459D01*
X712Y1459D01*
X712Y1461D01*
X624Y1461D01*
G37*
D02*
G36*
X724Y1461D02*
X724Y1459D01*
X732Y1459D01*
X732Y1457D01*
X738Y1457D01*
X738Y1455D01*
X742Y1455D01*
X742Y1453D01*
X746Y1453D01*
X746Y1451D01*
X748Y1451D01*
X748Y1449D01*
X750Y1449D01*
X750Y1447D01*
X752Y1447D01*
X752Y1445D01*
X754Y1445D01*
X754Y1443D01*
X756Y1443D01*
X756Y1441D01*
X758Y1441D01*
X758Y1439D01*
X778Y1439D01*
X778Y1441D01*
X780Y1441D01*
X780Y1443D01*
X782Y1443D01*
X782Y1445D01*
X784Y1445D01*
X784Y1447D01*
X786Y1447D01*
X786Y1449D01*
X788Y1449D01*
X788Y1451D01*
X790Y1451D01*
X790Y1453D01*
X794Y1453D01*
X794Y1455D01*
X798Y1455D01*
X798Y1457D01*
X804Y1457D01*
X804Y1459D01*
X812Y1459D01*
X812Y1461D01*
X724Y1461D01*
G37*
D02*
G36*
X824Y1461D02*
X824Y1459D01*
X832Y1459D01*
X832Y1457D01*
X838Y1457D01*
X838Y1455D01*
X842Y1455D01*
X842Y1453D01*
X846Y1453D01*
X846Y1451D01*
X848Y1451D01*
X848Y1449D01*
X850Y1449D01*
X850Y1447D01*
X852Y1447D01*
X852Y1445D01*
X854Y1445D01*
X854Y1443D01*
X856Y1443D01*
X856Y1441D01*
X858Y1441D01*
X858Y1439D01*
X878Y1439D01*
X878Y1441D01*
X880Y1441D01*
X880Y1443D01*
X882Y1443D01*
X882Y1445D01*
X884Y1445D01*
X884Y1447D01*
X886Y1447D01*
X886Y1449D01*
X888Y1449D01*
X888Y1451D01*
X890Y1451D01*
X890Y1453D01*
X894Y1453D01*
X894Y1455D01*
X898Y1455D01*
X898Y1457D01*
X904Y1457D01*
X904Y1459D01*
X912Y1459D01*
X912Y1461D01*
X824Y1461D01*
G37*
D02*
G36*
X558Y1385D02*
X558Y1383D01*
X556Y1383D01*
X556Y1379D01*
X554Y1379D01*
X554Y1377D01*
X552Y1377D01*
X552Y1375D01*
X550Y1375D01*
X550Y1373D01*
X546Y1373D01*
X546Y1371D01*
X544Y1371D01*
X544Y1369D01*
X540Y1369D01*
X540Y1367D01*
X536Y1367D01*
X536Y1365D01*
X530Y1365D01*
X530Y1363D01*
X606Y1363D01*
X606Y1365D01*
X600Y1365D01*
X600Y1367D01*
X596Y1367D01*
X596Y1369D01*
X592Y1369D01*
X592Y1371D01*
X590Y1371D01*
X590Y1373D01*
X586Y1373D01*
X586Y1375D01*
X584Y1375D01*
X584Y1377D01*
X582Y1377D01*
X582Y1379D01*
X580Y1379D01*
X580Y1383D01*
X578Y1383D01*
X578Y1385D01*
X558Y1385D01*
G37*
D02*
G36*
X658Y1385D02*
X658Y1383D01*
X656Y1383D01*
X656Y1379D01*
X654Y1379D01*
X654Y1377D01*
X652Y1377D01*
X652Y1375D01*
X650Y1375D01*
X650Y1373D01*
X646Y1373D01*
X646Y1371D01*
X644Y1371D01*
X644Y1369D01*
X640Y1369D01*
X640Y1367D01*
X636Y1367D01*
X636Y1365D01*
X630Y1365D01*
X630Y1363D01*
X706Y1363D01*
X706Y1365D01*
X700Y1365D01*
X700Y1367D01*
X696Y1367D01*
X696Y1369D01*
X692Y1369D01*
X692Y1371D01*
X690Y1371D01*
X690Y1373D01*
X686Y1373D01*
X686Y1375D01*
X684Y1375D01*
X684Y1377D01*
X682Y1377D01*
X682Y1379D01*
X680Y1379D01*
X680Y1383D01*
X678Y1383D01*
X678Y1385D01*
X658Y1385D01*
G37*
D02*
G36*
X758Y1385D02*
X758Y1383D01*
X756Y1383D01*
X756Y1379D01*
X754Y1379D01*
X754Y1377D01*
X752Y1377D01*
X752Y1375D01*
X750Y1375D01*
X750Y1373D01*
X746Y1373D01*
X746Y1371D01*
X744Y1371D01*
X744Y1369D01*
X740Y1369D01*
X740Y1367D01*
X736Y1367D01*
X736Y1365D01*
X730Y1365D01*
X730Y1363D01*
X806Y1363D01*
X806Y1365D01*
X800Y1365D01*
X800Y1367D01*
X796Y1367D01*
X796Y1369D01*
X792Y1369D01*
X792Y1371D01*
X790Y1371D01*
X790Y1373D01*
X786Y1373D01*
X786Y1375D01*
X784Y1375D01*
X784Y1377D01*
X782Y1377D01*
X782Y1379D01*
X780Y1379D01*
X780Y1383D01*
X778Y1383D01*
X778Y1385D01*
X758Y1385D01*
G37*
D02*
G36*
X858Y1385D02*
X858Y1383D01*
X856Y1383D01*
X856Y1379D01*
X854Y1379D01*
X854Y1377D01*
X852Y1377D01*
X852Y1375D01*
X850Y1375D01*
X850Y1373D01*
X846Y1373D01*
X846Y1371D01*
X844Y1371D01*
X844Y1369D01*
X840Y1369D01*
X840Y1367D01*
X836Y1367D01*
X836Y1365D01*
X830Y1365D01*
X830Y1363D01*
X906Y1363D01*
X906Y1365D01*
X900Y1365D01*
X900Y1367D01*
X896Y1367D01*
X896Y1369D01*
X892Y1369D01*
X892Y1371D01*
X890Y1371D01*
X890Y1373D01*
X886Y1373D01*
X886Y1375D01*
X884Y1375D01*
X884Y1377D01*
X882Y1377D01*
X882Y1379D01*
X880Y1379D01*
X880Y1383D01*
X878Y1383D01*
X878Y1385D01*
X858Y1385D01*
G37*
D02*
G36*
X40Y1363D02*
X40Y1361D01*
X1290Y1361D01*
X1290Y1363D01*
X40Y1363D01*
G37*
D02*
G36*
X40Y1363D02*
X40Y1361D01*
X1290Y1361D01*
X1290Y1363D01*
X40Y1363D01*
G37*
D02*
G36*
X40Y1363D02*
X40Y1361D01*
X1290Y1361D01*
X1290Y1363D01*
X40Y1363D01*
G37*
D02*
G36*
X40Y1363D02*
X40Y1361D01*
X1290Y1361D01*
X1290Y1363D01*
X40Y1363D01*
G37*
D02*
G36*
X40Y1363D02*
X40Y1361D01*
X1290Y1361D01*
X1290Y1363D01*
X40Y1363D01*
G37*
D02*
G36*
X40Y1363D02*
X40Y1361D01*
X1290Y1361D01*
X1290Y1363D01*
X40Y1363D01*
G37*
D02*
G36*
X40Y1361D02*
X40Y1061D01*
X1224Y1061D01*
X1224Y1059D01*
X1232Y1059D01*
X1232Y1057D01*
X1238Y1057D01*
X1238Y1055D01*
X1242Y1055D01*
X1242Y1053D01*
X1246Y1053D01*
X1246Y1051D01*
X1248Y1051D01*
X1248Y1049D01*
X1250Y1049D01*
X1250Y1047D01*
X1252Y1047D01*
X1252Y1045D01*
X1254Y1045D01*
X1254Y1043D01*
X1256Y1043D01*
X1256Y1041D01*
X1258Y1041D01*
X1258Y1039D01*
X1260Y1039D01*
X1260Y1035D01*
X1262Y1035D01*
X1262Y1031D01*
X1264Y1031D01*
X1264Y1025D01*
X1266Y1025D01*
X1266Y1013D01*
X1268Y1013D01*
X1268Y1009D01*
X1266Y1009D01*
X1266Y999D01*
X1264Y999D01*
X1264Y991D01*
X1262Y991D01*
X1262Y989D01*
X1260Y989D01*
X1260Y985D01*
X1258Y985D01*
X1258Y983D01*
X1256Y983D01*
X1256Y979D01*
X1254Y979D01*
X1254Y977D01*
X1252Y977D01*
X1252Y975D01*
X1250Y975D01*
X1250Y973D01*
X1246Y973D01*
X1246Y951D01*
X1248Y951D01*
X1248Y949D01*
X1250Y949D01*
X1250Y947D01*
X1252Y947D01*
X1252Y945D01*
X1254Y945D01*
X1254Y943D01*
X1256Y943D01*
X1256Y941D01*
X1258Y941D01*
X1258Y939D01*
X1260Y939D01*
X1260Y935D01*
X1262Y935D01*
X1262Y931D01*
X1264Y931D01*
X1264Y925D01*
X1266Y925D01*
X1266Y913D01*
X1268Y913D01*
X1268Y909D01*
X1266Y909D01*
X1266Y899D01*
X1264Y899D01*
X1264Y891D01*
X1262Y891D01*
X1262Y889D01*
X1260Y889D01*
X1260Y885D01*
X1258Y885D01*
X1258Y883D01*
X1256Y883D01*
X1256Y879D01*
X1254Y879D01*
X1254Y877D01*
X1252Y877D01*
X1252Y875D01*
X1250Y875D01*
X1250Y873D01*
X1246Y873D01*
X1246Y851D01*
X1248Y851D01*
X1248Y849D01*
X1250Y849D01*
X1250Y847D01*
X1252Y847D01*
X1252Y845D01*
X1254Y845D01*
X1254Y843D01*
X1256Y843D01*
X1256Y841D01*
X1258Y841D01*
X1258Y839D01*
X1260Y839D01*
X1260Y835D01*
X1262Y835D01*
X1262Y831D01*
X1264Y831D01*
X1264Y825D01*
X1266Y825D01*
X1266Y813D01*
X1268Y813D01*
X1268Y809D01*
X1266Y809D01*
X1266Y799D01*
X1264Y799D01*
X1264Y791D01*
X1262Y791D01*
X1262Y789D01*
X1260Y789D01*
X1260Y785D01*
X1258Y785D01*
X1258Y783D01*
X1256Y783D01*
X1256Y779D01*
X1254Y779D01*
X1254Y777D01*
X1252Y777D01*
X1252Y775D01*
X1250Y775D01*
X1250Y773D01*
X1246Y773D01*
X1246Y751D01*
X1248Y751D01*
X1248Y749D01*
X1250Y749D01*
X1250Y747D01*
X1252Y747D01*
X1252Y745D01*
X1254Y745D01*
X1254Y743D01*
X1256Y743D01*
X1256Y741D01*
X1258Y741D01*
X1258Y739D01*
X1260Y739D01*
X1260Y735D01*
X1262Y735D01*
X1262Y731D01*
X1264Y731D01*
X1264Y725D01*
X1266Y725D01*
X1266Y713D01*
X1268Y713D01*
X1268Y709D01*
X1266Y709D01*
X1266Y699D01*
X1264Y699D01*
X1264Y691D01*
X1262Y691D01*
X1262Y689D01*
X1260Y689D01*
X1260Y685D01*
X1258Y685D01*
X1258Y683D01*
X1256Y683D01*
X1256Y679D01*
X1254Y679D01*
X1254Y677D01*
X1252Y677D01*
X1252Y675D01*
X1250Y675D01*
X1250Y673D01*
X1246Y673D01*
X1246Y651D01*
X1248Y651D01*
X1248Y649D01*
X1250Y649D01*
X1250Y647D01*
X1252Y647D01*
X1252Y645D01*
X1254Y645D01*
X1254Y643D01*
X1256Y643D01*
X1256Y641D01*
X1258Y641D01*
X1258Y639D01*
X1260Y639D01*
X1260Y635D01*
X1262Y635D01*
X1262Y631D01*
X1264Y631D01*
X1264Y625D01*
X1266Y625D01*
X1266Y613D01*
X1268Y613D01*
X1268Y609D01*
X1266Y609D01*
X1266Y599D01*
X1264Y599D01*
X1264Y591D01*
X1262Y591D01*
X1262Y589D01*
X1260Y589D01*
X1260Y585D01*
X1258Y585D01*
X1258Y583D01*
X1256Y583D01*
X1256Y579D01*
X1254Y579D01*
X1254Y577D01*
X1252Y577D01*
X1252Y575D01*
X1250Y575D01*
X1250Y573D01*
X1246Y573D01*
X1246Y551D01*
X1248Y551D01*
X1248Y549D01*
X1250Y549D01*
X1250Y547D01*
X1252Y547D01*
X1252Y545D01*
X1254Y545D01*
X1254Y543D01*
X1256Y543D01*
X1256Y541D01*
X1258Y541D01*
X1258Y539D01*
X1260Y539D01*
X1260Y535D01*
X1262Y535D01*
X1262Y531D01*
X1264Y531D01*
X1264Y525D01*
X1266Y525D01*
X1266Y513D01*
X1268Y513D01*
X1268Y509D01*
X1266Y509D01*
X1266Y499D01*
X1264Y499D01*
X1264Y491D01*
X1262Y491D01*
X1262Y489D01*
X1260Y489D01*
X1260Y485D01*
X1258Y485D01*
X1258Y483D01*
X1256Y483D01*
X1256Y479D01*
X1254Y479D01*
X1254Y477D01*
X1252Y477D01*
X1252Y475D01*
X1250Y475D01*
X1250Y473D01*
X1246Y473D01*
X1246Y451D01*
X1248Y451D01*
X1248Y449D01*
X1250Y449D01*
X1250Y447D01*
X1252Y447D01*
X1252Y445D01*
X1254Y445D01*
X1254Y443D01*
X1256Y443D01*
X1256Y441D01*
X1258Y441D01*
X1258Y439D01*
X1260Y439D01*
X1260Y435D01*
X1262Y435D01*
X1262Y431D01*
X1264Y431D01*
X1264Y425D01*
X1266Y425D01*
X1266Y413D01*
X1268Y413D01*
X1268Y409D01*
X1266Y409D01*
X1266Y399D01*
X1264Y399D01*
X1264Y391D01*
X1262Y391D01*
X1262Y389D01*
X1260Y389D01*
X1260Y385D01*
X1258Y385D01*
X1258Y383D01*
X1256Y383D01*
X1256Y379D01*
X1254Y379D01*
X1254Y377D01*
X1252Y377D01*
X1252Y375D01*
X1250Y375D01*
X1250Y373D01*
X1246Y373D01*
X1246Y351D01*
X1248Y351D01*
X1248Y349D01*
X1250Y349D01*
X1250Y347D01*
X1252Y347D01*
X1252Y345D01*
X1254Y345D01*
X1254Y343D01*
X1256Y343D01*
X1256Y341D01*
X1258Y341D01*
X1258Y339D01*
X1260Y339D01*
X1260Y335D01*
X1262Y335D01*
X1262Y331D01*
X1264Y331D01*
X1264Y325D01*
X1266Y325D01*
X1266Y313D01*
X1268Y313D01*
X1268Y309D01*
X1266Y309D01*
X1266Y299D01*
X1264Y299D01*
X1264Y291D01*
X1262Y291D01*
X1262Y289D01*
X1260Y289D01*
X1260Y285D01*
X1258Y285D01*
X1258Y283D01*
X1256Y283D01*
X1256Y279D01*
X1254Y279D01*
X1254Y277D01*
X1252Y277D01*
X1252Y275D01*
X1250Y275D01*
X1250Y273D01*
X1246Y273D01*
X1246Y251D01*
X1248Y251D01*
X1248Y249D01*
X1250Y249D01*
X1250Y247D01*
X1252Y247D01*
X1252Y245D01*
X1254Y245D01*
X1254Y243D01*
X1256Y243D01*
X1256Y241D01*
X1258Y241D01*
X1258Y239D01*
X1260Y239D01*
X1260Y235D01*
X1262Y235D01*
X1262Y231D01*
X1264Y231D01*
X1264Y225D01*
X1266Y225D01*
X1266Y213D01*
X1268Y213D01*
X1268Y209D01*
X1266Y209D01*
X1266Y199D01*
X1264Y199D01*
X1264Y191D01*
X1262Y191D01*
X1262Y189D01*
X1260Y189D01*
X1260Y185D01*
X1258Y185D01*
X1258Y183D01*
X1256Y183D01*
X1256Y179D01*
X1254Y179D01*
X1254Y177D01*
X1252Y177D01*
X1252Y175D01*
X1250Y175D01*
X1250Y173D01*
X1246Y173D01*
X1246Y151D01*
X1248Y151D01*
X1248Y149D01*
X1250Y149D01*
X1250Y147D01*
X1252Y147D01*
X1252Y145D01*
X1254Y145D01*
X1254Y143D01*
X1256Y143D01*
X1256Y141D01*
X1258Y141D01*
X1258Y139D01*
X1260Y139D01*
X1260Y135D01*
X1262Y135D01*
X1262Y131D01*
X1264Y131D01*
X1264Y125D01*
X1266Y125D01*
X1266Y113D01*
X1268Y113D01*
X1268Y109D01*
X1266Y109D01*
X1266Y99D01*
X1264Y99D01*
X1264Y91D01*
X1262Y91D01*
X1262Y89D01*
X1260Y89D01*
X1260Y85D01*
X1258Y85D01*
X1258Y83D01*
X1256Y83D01*
X1256Y79D01*
X1254Y79D01*
X1254Y77D01*
X1252Y77D01*
X1252Y75D01*
X1250Y75D01*
X1250Y73D01*
X1246Y73D01*
X1246Y71D01*
X1244Y71D01*
X1244Y69D01*
X1240Y69D01*
X1240Y67D01*
X1236Y67D01*
X1236Y65D01*
X1230Y65D01*
X1230Y63D01*
X1290Y63D01*
X1290Y1361D01*
X40Y1361D01*
G37*
D02*
G36*
X40Y1061D02*
X40Y63D01*
X106Y63D01*
X106Y65D01*
X100Y65D01*
X100Y67D01*
X96Y67D01*
X96Y69D01*
X92Y69D01*
X92Y71D01*
X90Y71D01*
X90Y73D01*
X86Y73D01*
X86Y75D01*
X84Y75D01*
X84Y77D01*
X82Y77D01*
X82Y79D01*
X80Y79D01*
X80Y83D01*
X78Y83D01*
X78Y85D01*
X76Y85D01*
X76Y89D01*
X74Y89D01*
X74Y93D01*
X72Y93D01*
X72Y99D01*
X70Y99D01*
X70Y123D01*
X72Y123D01*
X72Y131D01*
X74Y131D01*
X74Y135D01*
X76Y135D01*
X76Y137D01*
X78Y137D01*
X78Y141D01*
X80Y141D01*
X80Y143D01*
X82Y143D01*
X82Y145D01*
X84Y145D01*
X84Y147D01*
X86Y147D01*
X86Y149D01*
X88Y149D01*
X88Y151D01*
X90Y151D01*
X90Y173D01*
X86Y173D01*
X86Y175D01*
X84Y175D01*
X84Y177D01*
X82Y177D01*
X82Y179D01*
X80Y179D01*
X80Y183D01*
X78Y183D01*
X78Y185D01*
X76Y185D01*
X76Y189D01*
X74Y189D01*
X74Y193D01*
X72Y193D01*
X72Y199D01*
X70Y199D01*
X70Y223D01*
X72Y223D01*
X72Y231D01*
X74Y231D01*
X74Y235D01*
X76Y235D01*
X76Y237D01*
X78Y237D01*
X78Y241D01*
X80Y241D01*
X80Y243D01*
X82Y243D01*
X82Y245D01*
X84Y245D01*
X84Y247D01*
X86Y247D01*
X86Y249D01*
X88Y249D01*
X88Y251D01*
X90Y251D01*
X90Y273D01*
X86Y273D01*
X86Y275D01*
X84Y275D01*
X84Y277D01*
X82Y277D01*
X82Y279D01*
X80Y279D01*
X80Y283D01*
X78Y283D01*
X78Y285D01*
X76Y285D01*
X76Y289D01*
X74Y289D01*
X74Y293D01*
X72Y293D01*
X72Y299D01*
X70Y299D01*
X70Y323D01*
X72Y323D01*
X72Y331D01*
X74Y331D01*
X74Y335D01*
X76Y335D01*
X76Y337D01*
X78Y337D01*
X78Y341D01*
X80Y341D01*
X80Y343D01*
X82Y343D01*
X82Y345D01*
X84Y345D01*
X84Y347D01*
X86Y347D01*
X86Y349D01*
X88Y349D01*
X88Y351D01*
X90Y351D01*
X90Y373D01*
X86Y373D01*
X86Y375D01*
X84Y375D01*
X84Y377D01*
X82Y377D01*
X82Y379D01*
X80Y379D01*
X80Y383D01*
X78Y383D01*
X78Y385D01*
X76Y385D01*
X76Y389D01*
X74Y389D01*
X74Y393D01*
X72Y393D01*
X72Y399D01*
X70Y399D01*
X70Y423D01*
X72Y423D01*
X72Y431D01*
X74Y431D01*
X74Y435D01*
X76Y435D01*
X76Y437D01*
X78Y437D01*
X78Y441D01*
X80Y441D01*
X80Y443D01*
X82Y443D01*
X82Y445D01*
X84Y445D01*
X84Y447D01*
X86Y447D01*
X86Y449D01*
X88Y449D01*
X88Y451D01*
X90Y451D01*
X90Y473D01*
X86Y473D01*
X86Y475D01*
X84Y475D01*
X84Y477D01*
X82Y477D01*
X82Y479D01*
X80Y479D01*
X80Y483D01*
X78Y483D01*
X78Y485D01*
X76Y485D01*
X76Y489D01*
X74Y489D01*
X74Y493D01*
X72Y493D01*
X72Y499D01*
X70Y499D01*
X70Y523D01*
X72Y523D01*
X72Y531D01*
X74Y531D01*
X74Y535D01*
X76Y535D01*
X76Y537D01*
X78Y537D01*
X78Y541D01*
X80Y541D01*
X80Y543D01*
X82Y543D01*
X82Y545D01*
X84Y545D01*
X84Y547D01*
X86Y547D01*
X86Y549D01*
X88Y549D01*
X88Y551D01*
X90Y551D01*
X90Y573D01*
X86Y573D01*
X86Y575D01*
X84Y575D01*
X84Y577D01*
X82Y577D01*
X82Y579D01*
X80Y579D01*
X80Y583D01*
X78Y583D01*
X78Y585D01*
X76Y585D01*
X76Y589D01*
X74Y589D01*
X74Y593D01*
X72Y593D01*
X72Y599D01*
X70Y599D01*
X70Y623D01*
X72Y623D01*
X72Y631D01*
X74Y631D01*
X74Y635D01*
X76Y635D01*
X76Y637D01*
X78Y637D01*
X78Y641D01*
X80Y641D01*
X80Y643D01*
X82Y643D01*
X82Y645D01*
X84Y645D01*
X84Y647D01*
X86Y647D01*
X86Y649D01*
X88Y649D01*
X88Y651D01*
X90Y651D01*
X90Y673D01*
X86Y673D01*
X86Y675D01*
X84Y675D01*
X84Y677D01*
X82Y677D01*
X82Y679D01*
X80Y679D01*
X80Y683D01*
X78Y683D01*
X78Y685D01*
X76Y685D01*
X76Y689D01*
X74Y689D01*
X74Y693D01*
X72Y693D01*
X72Y699D01*
X70Y699D01*
X70Y723D01*
X72Y723D01*
X72Y731D01*
X74Y731D01*
X74Y735D01*
X76Y735D01*
X76Y737D01*
X78Y737D01*
X78Y741D01*
X80Y741D01*
X80Y743D01*
X82Y743D01*
X82Y745D01*
X84Y745D01*
X84Y747D01*
X86Y747D01*
X86Y749D01*
X88Y749D01*
X88Y751D01*
X90Y751D01*
X90Y773D01*
X86Y773D01*
X86Y775D01*
X84Y775D01*
X84Y777D01*
X82Y777D01*
X82Y779D01*
X80Y779D01*
X80Y783D01*
X78Y783D01*
X78Y785D01*
X76Y785D01*
X76Y789D01*
X74Y789D01*
X74Y793D01*
X72Y793D01*
X72Y799D01*
X70Y799D01*
X70Y823D01*
X72Y823D01*
X72Y831D01*
X74Y831D01*
X74Y835D01*
X76Y835D01*
X76Y837D01*
X78Y837D01*
X78Y841D01*
X80Y841D01*
X80Y843D01*
X82Y843D01*
X82Y845D01*
X84Y845D01*
X84Y847D01*
X86Y847D01*
X86Y849D01*
X88Y849D01*
X88Y851D01*
X90Y851D01*
X90Y873D01*
X86Y873D01*
X86Y875D01*
X84Y875D01*
X84Y877D01*
X82Y877D01*
X82Y879D01*
X80Y879D01*
X80Y883D01*
X78Y883D01*
X78Y885D01*
X76Y885D01*
X76Y889D01*
X74Y889D01*
X74Y893D01*
X72Y893D01*
X72Y899D01*
X70Y899D01*
X70Y923D01*
X72Y923D01*
X72Y931D01*
X74Y931D01*
X74Y935D01*
X76Y935D01*
X76Y937D01*
X78Y937D01*
X78Y941D01*
X80Y941D01*
X80Y943D01*
X82Y943D01*
X82Y945D01*
X84Y945D01*
X84Y947D01*
X86Y947D01*
X86Y949D01*
X88Y949D01*
X88Y951D01*
X90Y951D01*
X90Y973D01*
X86Y973D01*
X86Y975D01*
X84Y975D01*
X84Y977D01*
X82Y977D01*
X82Y979D01*
X80Y979D01*
X80Y983D01*
X78Y983D01*
X78Y985D01*
X76Y985D01*
X76Y989D01*
X74Y989D01*
X74Y993D01*
X72Y993D01*
X72Y999D01*
X70Y999D01*
X70Y1023D01*
X72Y1023D01*
X72Y1031D01*
X74Y1031D01*
X74Y1035D01*
X76Y1035D01*
X76Y1037D01*
X78Y1037D01*
X78Y1041D01*
X80Y1041D01*
X80Y1043D01*
X82Y1043D01*
X82Y1045D01*
X84Y1045D01*
X84Y1047D01*
X86Y1047D01*
X86Y1049D01*
X88Y1049D01*
X88Y1051D01*
X90Y1051D01*
X90Y1053D01*
X94Y1053D01*
X94Y1055D01*
X98Y1055D01*
X98Y1057D01*
X104Y1057D01*
X104Y1059D01*
X112Y1059D01*
X112Y1061D01*
X40Y1061D01*
G37*
D02*
G36*
X124Y1061D02*
X124Y1059D01*
X132Y1059D01*
X132Y1057D01*
X138Y1057D01*
X138Y1055D01*
X142Y1055D01*
X142Y1053D01*
X146Y1053D01*
X146Y1051D01*
X148Y1051D01*
X148Y1049D01*
X150Y1049D01*
X150Y1047D01*
X152Y1047D01*
X152Y1045D01*
X154Y1045D01*
X154Y1043D01*
X156Y1043D01*
X156Y1041D01*
X158Y1041D01*
X158Y1039D01*
X178Y1039D01*
X178Y1041D01*
X180Y1041D01*
X180Y1043D01*
X182Y1043D01*
X182Y1045D01*
X184Y1045D01*
X184Y1047D01*
X186Y1047D01*
X186Y1049D01*
X188Y1049D01*
X188Y1051D01*
X190Y1051D01*
X190Y1053D01*
X194Y1053D01*
X194Y1055D01*
X198Y1055D01*
X198Y1057D01*
X204Y1057D01*
X204Y1059D01*
X212Y1059D01*
X212Y1061D01*
X124Y1061D01*
G37*
D02*
G36*
X224Y1061D02*
X224Y1059D01*
X232Y1059D01*
X232Y1057D01*
X238Y1057D01*
X238Y1055D01*
X242Y1055D01*
X242Y1053D01*
X246Y1053D01*
X246Y1051D01*
X248Y1051D01*
X248Y1049D01*
X250Y1049D01*
X250Y1047D01*
X252Y1047D01*
X252Y1045D01*
X254Y1045D01*
X254Y1043D01*
X256Y1043D01*
X256Y1041D01*
X258Y1041D01*
X258Y1039D01*
X260Y1039D01*
X260Y1035D01*
X262Y1035D01*
X262Y1031D01*
X264Y1031D01*
X264Y1025D01*
X266Y1025D01*
X266Y1013D01*
X268Y1013D01*
X268Y1009D01*
X266Y1009D01*
X266Y999D01*
X264Y999D01*
X264Y991D01*
X262Y991D01*
X262Y989D01*
X260Y989D01*
X260Y985D01*
X258Y985D01*
X258Y983D01*
X256Y983D01*
X256Y979D01*
X254Y979D01*
X254Y977D01*
X252Y977D01*
X252Y975D01*
X250Y975D01*
X250Y973D01*
X246Y973D01*
X246Y951D01*
X248Y951D01*
X248Y949D01*
X250Y949D01*
X250Y947D01*
X252Y947D01*
X252Y945D01*
X254Y945D01*
X254Y943D01*
X256Y943D01*
X256Y941D01*
X258Y941D01*
X258Y939D01*
X260Y939D01*
X260Y935D01*
X262Y935D01*
X262Y931D01*
X264Y931D01*
X264Y925D01*
X266Y925D01*
X266Y913D01*
X268Y913D01*
X268Y909D01*
X266Y909D01*
X266Y899D01*
X264Y899D01*
X264Y891D01*
X262Y891D01*
X262Y889D01*
X260Y889D01*
X260Y885D01*
X258Y885D01*
X258Y883D01*
X256Y883D01*
X256Y879D01*
X254Y879D01*
X254Y877D01*
X252Y877D01*
X252Y875D01*
X250Y875D01*
X250Y873D01*
X246Y873D01*
X246Y851D01*
X248Y851D01*
X248Y849D01*
X250Y849D01*
X250Y847D01*
X252Y847D01*
X252Y845D01*
X254Y845D01*
X254Y843D01*
X256Y843D01*
X256Y841D01*
X526Y841D01*
X526Y839D01*
X532Y839D01*
X532Y837D01*
X534Y837D01*
X534Y835D01*
X538Y835D01*
X538Y833D01*
X540Y833D01*
X540Y831D01*
X542Y831D01*
X542Y827D01*
X544Y827D01*
X544Y823D01*
X546Y823D01*
X546Y817D01*
X548Y817D01*
X548Y805D01*
X546Y805D01*
X546Y799D01*
X544Y799D01*
X544Y795D01*
X542Y795D01*
X542Y793D01*
X540Y793D01*
X540Y741D01*
X926Y741D01*
X926Y739D01*
X932Y739D01*
X932Y737D01*
X934Y737D01*
X934Y735D01*
X938Y735D01*
X938Y733D01*
X940Y733D01*
X940Y731D01*
X942Y731D01*
X942Y727D01*
X944Y727D01*
X944Y725D01*
X946Y725D01*
X946Y719D01*
X948Y719D01*
X948Y703D01*
X946Y703D01*
X946Y697D01*
X944Y697D01*
X944Y695D01*
X942Y695D01*
X942Y691D01*
X940Y691D01*
X940Y689D01*
X936Y689D01*
X936Y687D01*
X934Y687D01*
X934Y685D01*
X930Y685D01*
X930Y683D01*
X924Y683D01*
X924Y681D01*
X1080Y681D01*
X1080Y683D01*
X1078Y683D01*
X1078Y685D01*
X1076Y685D01*
X1076Y689D01*
X1074Y689D01*
X1074Y693D01*
X1072Y693D01*
X1072Y699D01*
X1070Y699D01*
X1070Y723D01*
X1072Y723D01*
X1072Y731D01*
X1074Y731D01*
X1074Y735D01*
X1076Y735D01*
X1076Y737D01*
X1078Y737D01*
X1078Y741D01*
X1080Y741D01*
X1080Y743D01*
X1082Y743D01*
X1082Y745D01*
X1084Y745D01*
X1084Y747D01*
X1086Y747D01*
X1086Y749D01*
X1088Y749D01*
X1088Y751D01*
X1090Y751D01*
X1090Y773D01*
X1086Y773D01*
X1086Y775D01*
X1084Y775D01*
X1084Y777D01*
X1082Y777D01*
X1082Y779D01*
X1080Y779D01*
X1080Y783D01*
X1078Y783D01*
X1078Y785D01*
X1076Y785D01*
X1076Y789D01*
X1074Y789D01*
X1074Y793D01*
X1072Y793D01*
X1072Y799D01*
X1070Y799D01*
X1070Y823D01*
X1072Y823D01*
X1072Y831D01*
X1074Y831D01*
X1074Y835D01*
X1076Y835D01*
X1076Y837D01*
X1078Y837D01*
X1078Y841D01*
X1080Y841D01*
X1080Y843D01*
X1082Y843D01*
X1082Y845D01*
X1084Y845D01*
X1084Y847D01*
X1086Y847D01*
X1086Y849D01*
X1088Y849D01*
X1088Y851D01*
X1090Y851D01*
X1090Y873D01*
X1086Y873D01*
X1086Y875D01*
X1084Y875D01*
X1084Y877D01*
X1082Y877D01*
X1082Y879D01*
X1080Y879D01*
X1080Y883D01*
X1078Y883D01*
X1078Y885D01*
X1076Y885D01*
X1076Y889D01*
X1074Y889D01*
X1074Y893D01*
X1072Y893D01*
X1072Y899D01*
X1070Y899D01*
X1070Y923D01*
X1072Y923D01*
X1072Y931D01*
X1074Y931D01*
X1074Y935D01*
X1076Y935D01*
X1076Y937D01*
X1078Y937D01*
X1078Y941D01*
X1080Y941D01*
X1080Y943D01*
X1082Y943D01*
X1082Y945D01*
X1084Y945D01*
X1084Y947D01*
X1086Y947D01*
X1086Y949D01*
X1088Y949D01*
X1088Y951D01*
X1090Y951D01*
X1090Y973D01*
X1086Y973D01*
X1086Y975D01*
X1084Y975D01*
X1084Y977D01*
X1082Y977D01*
X1082Y979D01*
X1080Y979D01*
X1080Y983D01*
X1078Y983D01*
X1078Y985D01*
X1076Y985D01*
X1076Y989D01*
X1074Y989D01*
X1074Y993D01*
X1072Y993D01*
X1072Y999D01*
X1070Y999D01*
X1070Y1023D01*
X1072Y1023D01*
X1072Y1031D01*
X1074Y1031D01*
X1074Y1035D01*
X1076Y1035D01*
X1076Y1037D01*
X1078Y1037D01*
X1078Y1041D01*
X1080Y1041D01*
X1080Y1043D01*
X1082Y1043D01*
X1082Y1045D01*
X1084Y1045D01*
X1084Y1047D01*
X1086Y1047D01*
X1086Y1049D01*
X1088Y1049D01*
X1088Y1051D01*
X1090Y1051D01*
X1090Y1053D01*
X1094Y1053D01*
X1094Y1055D01*
X1098Y1055D01*
X1098Y1057D01*
X1104Y1057D01*
X1104Y1059D01*
X1112Y1059D01*
X1112Y1061D01*
X224Y1061D01*
G37*
D02*
G36*
X1124Y1061D02*
X1124Y1059D01*
X1132Y1059D01*
X1132Y1057D01*
X1138Y1057D01*
X1138Y1055D01*
X1142Y1055D01*
X1142Y1053D01*
X1146Y1053D01*
X1146Y1051D01*
X1148Y1051D01*
X1148Y1049D01*
X1150Y1049D01*
X1150Y1047D01*
X1152Y1047D01*
X1152Y1045D01*
X1154Y1045D01*
X1154Y1043D01*
X1156Y1043D01*
X1156Y1041D01*
X1158Y1041D01*
X1158Y1039D01*
X1178Y1039D01*
X1178Y1041D01*
X1180Y1041D01*
X1180Y1043D01*
X1182Y1043D01*
X1182Y1045D01*
X1184Y1045D01*
X1184Y1047D01*
X1186Y1047D01*
X1186Y1049D01*
X1188Y1049D01*
X1188Y1051D01*
X1190Y1051D01*
X1190Y1053D01*
X1194Y1053D01*
X1194Y1055D01*
X1198Y1055D01*
X1198Y1057D01*
X1204Y1057D01*
X1204Y1059D01*
X1212Y1059D01*
X1212Y1061D01*
X1124Y1061D01*
G37*
D02*
G36*
X258Y841D02*
X258Y839D01*
X260Y839D01*
X260Y835D01*
X262Y835D01*
X262Y831D01*
X264Y831D01*
X264Y825D01*
X266Y825D01*
X266Y813D01*
X268Y813D01*
X268Y809D01*
X266Y809D01*
X266Y799D01*
X264Y799D01*
X264Y791D01*
X262Y791D01*
X262Y789D01*
X260Y789D01*
X260Y785D01*
X258Y785D01*
X258Y783D01*
X256Y783D01*
X256Y779D01*
X254Y779D01*
X254Y777D01*
X252Y777D01*
X252Y775D01*
X250Y775D01*
X250Y773D01*
X246Y773D01*
X246Y751D01*
X248Y751D01*
X248Y749D01*
X250Y749D01*
X250Y747D01*
X252Y747D01*
X252Y745D01*
X254Y745D01*
X254Y743D01*
X256Y743D01*
X256Y741D01*
X258Y741D01*
X258Y739D01*
X260Y739D01*
X260Y735D01*
X262Y735D01*
X262Y731D01*
X264Y731D01*
X264Y725D01*
X266Y725D01*
X266Y713D01*
X268Y713D01*
X268Y709D01*
X266Y709D01*
X266Y699D01*
X264Y699D01*
X264Y691D01*
X262Y691D01*
X262Y689D01*
X260Y689D01*
X260Y685D01*
X258Y685D01*
X258Y683D01*
X256Y683D01*
X256Y679D01*
X254Y679D01*
X254Y677D01*
X252Y677D01*
X252Y675D01*
X250Y675D01*
X250Y673D01*
X246Y673D01*
X246Y651D01*
X248Y651D01*
X248Y649D01*
X250Y649D01*
X250Y647D01*
X252Y647D01*
X252Y645D01*
X254Y645D01*
X254Y643D01*
X256Y643D01*
X256Y641D01*
X258Y641D01*
X258Y639D01*
X260Y639D01*
X260Y635D01*
X262Y635D01*
X262Y631D01*
X264Y631D01*
X264Y625D01*
X266Y625D01*
X266Y613D01*
X268Y613D01*
X268Y609D01*
X266Y609D01*
X266Y599D01*
X264Y599D01*
X264Y591D01*
X262Y591D01*
X262Y589D01*
X260Y589D01*
X260Y585D01*
X258Y585D01*
X258Y583D01*
X256Y583D01*
X256Y579D01*
X254Y579D01*
X254Y577D01*
X252Y577D01*
X252Y575D01*
X250Y575D01*
X250Y573D01*
X246Y573D01*
X246Y551D01*
X248Y551D01*
X248Y549D01*
X250Y549D01*
X250Y547D01*
X252Y547D01*
X252Y545D01*
X254Y545D01*
X254Y543D01*
X256Y543D01*
X256Y541D01*
X258Y541D01*
X258Y539D01*
X260Y539D01*
X260Y535D01*
X262Y535D01*
X262Y531D01*
X264Y531D01*
X264Y525D01*
X266Y525D01*
X266Y513D01*
X268Y513D01*
X268Y509D01*
X266Y509D01*
X266Y499D01*
X264Y499D01*
X264Y491D01*
X262Y491D01*
X262Y489D01*
X260Y489D01*
X260Y485D01*
X258Y485D01*
X258Y483D01*
X256Y483D01*
X256Y479D01*
X254Y479D01*
X254Y477D01*
X252Y477D01*
X252Y475D01*
X250Y475D01*
X250Y473D01*
X246Y473D01*
X246Y451D01*
X248Y451D01*
X248Y449D01*
X250Y449D01*
X250Y447D01*
X252Y447D01*
X252Y445D01*
X254Y445D01*
X254Y443D01*
X256Y443D01*
X256Y441D01*
X258Y441D01*
X258Y439D01*
X260Y439D01*
X260Y435D01*
X262Y435D01*
X262Y431D01*
X264Y431D01*
X264Y425D01*
X266Y425D01*
X266Y413D01*
X268Y413D01*
X268Y409D01*
X266Y409D01*
X266Y399D01*
X264Y399D01*
X264Y391D01*
X262Y391D01*
X262Y389D01*
X260Y389D01*
X260Y385D01*
X258Y385D01*
X258Y383D01*
X256Y383D01*
X256Y381D01*
X516Y381D01*
X516Y383D01*
X508Y383D01*
X508Y385D01*
X504Y385D01*
X504Y387D01*
X500Y387D01*
X500Y389D01*
X498Y389D01*
X498Y391D01*
X496Y391D01*
X496Y393D01*
X494Y393D01*
X494Y395D01*
X492Y395D01*
X492Y399D01*
X490Y399D01*
X490Y407D01*
X488Y407D01*
X488Y417D01*
X490Y417D01*
X490Y423D01*
X492Y423D01*
X492Y427D01*
X494Y427D01*
X494Y429D01*
X496Y429D01*
X496Y793D01*
X494Y793D01*
X494Y795D01*
X492Y795D01*
X492Y799D01*
X490Y799D01*
X490Y807D01*
X488Y807D01*
X488Y817D01*
X490Y817D01*
X490Y823D01*
X492Y823D01*
X492Y827D01*
X494Y827D01*
X494Y829D01*
X496Y829D01*
X496Y833D01*
X500Y833D01*
X500Y835D01*
X502Y835D01*
X502Y837D01*
X506Y837D01*
X506Y839D01*
X510Y839D01*
X510Y841D01*
X258Y841D01*
G37*
D02*
G36*
X540Y741D02*
X540Y681D01*
X616Y681D01*
X616Y683D01*
X608Y683D01*
X608Y685D01*
X604Y685D01*
X604Y687D01*
X600Y687D01*
X600Y689D01*
X598Y689D01*
X598Y691D01*
X596Y691D01*
X596Y693D01*
X594Y693D01*
X594Y695D01*
X592Y695D01*
X592Y699D01*
X590Y699D01*
X590Y707D01*
X588Y707D01*
X588Y717D01*
X590Y717D01*
X590Y723D01*
X592Y723D01*
X592Y727D01*
X594Y727D01*
X594Y729D01*
X596Y729D01*
X596Y733D01*
X600Y733D01*
X600Y735D01*
X602Y735D01*
X602Y737D01*
X606Y737D01*
X606Y739D01*
X610Y739D01*
X610Y741D01*
X540Y741D01*
G37*
D02*
G36*
X626Y741D02*
X626Y739D01*
X632Y739D01*
X632Y737D01*
X634Y737D01*
X634Y735D01*
X638Y735D01*
X638Y733D01*
X900Y733D01*
X900Y735D01*
X902Y735D01*
X902Y737D01*
X906Y737D01*
X906Y739D01*
X912Y739D01*
X912Y741D01*
X626Y741D01*
G37*
D02*
G36*
X636Y689D02*
X636Y687D01*
X634Y687D01*
X634Y685D01*
X630Y685D01*
X630Y683D01*
X620Y683D01*
X620Y681D01*
X914Y681D01*
X914Y683D01*
X906Y683D01*
X906Y685D01*
X904Y685D01*
X904Y687D01*
X900Y687D01*
X900Y689D01*
X636Y689D01*
G37*
D02*
G36*
X540Y681D02*
X540Y679D01*
X1080Y679D01*
X1080Y681D01*
X540Y681D01*
G37*
D02*
G36*
X540Y681D02*
X540Y679D01*
X1080Y679D01*
X1080Y681D01*
X540Y681D01*
G37*
D02*
G36*
X540Y681D02*
X540Y679D01*
X1080Y679D01*
X1080Y681D01*
X540Y681D01*
G37*
D02*
G36*
X540Y679D02*
X540Y641D01*
X826Y641D01*
X826Y639D01*
X830Y639D01*
X830Y637D01*
X834Y637D01*
X834Y635D01*
X836Y635D01*
X836Y633D01*
X838Y633D01*
X838Y631D01*
X840Y631D01*
X840Y629D01*
X842Y629D01*
X842Y627D01*
X844Y627D01*
X844Y623D01*
X846Y623D01*
X846Y613D01*
X848Y613D01*
X848Y609D01*
X846Y609D01*
X846Y601D01*
X844Y601D01*
X844Y597D01*
X842Y597D01*
X842Y593D01*
X840Y593D01*
X840Y591D01*
X838Y591D01*
X838Y589D01*
X836Y589D01*
X836Y587D01*
X832Y587D01*
X832Y585D01*
X828Y585D01*
X828Y583D01*
X820Y583D01*
X820Y581D01*
X1080Y581D01*
X1080Y583D01*
X1078Y583D01*
X1078Y585D01*
X1076Y585D01*
X1076Y589D01*
X1074Y589D01*
X1074Y593D01*
X1072Y593D01*
X1072Y599D01*
X1070Y599D01*
X1070Y623D01*
X1072Y623D01*
X1072Y631D01*
X1074Y631D01*
X1074Y635D01*
X1076Y635D01*
X1076Y637D01*
X1078Y637D01*
X1078Y641D01*
X1080Y641D01*
X1080Y643D01*
X1082Y643D01*
X1082Y645D01*
X1084Y645D01*
X1084Y647D01*
X1086Y647D01*
X1086Y649D01*
X1088Y649D01*
X1088Y651D01*
X1090Y651D01*
X1090Y673D01*
X1086Y673D01*
X1086Y675D01*
X1084Y675D01*
X1084Y677D01*
X1082Y677D01*
X1082Y679D01*
X540Y679D01*
G37*
D02*
G36*
X540Y641D02*
X540Y581D01*
X616Y581D01*
X616Y583D01*
X608Y583D01*
X608Y585D01*
X604Y585D01*
X604Y587D01*
X600Y587D01*
X600Y589D01*
X598Y589D01*
X598Y591D01*
X596Y591D01*
X596Y593D01*
X594Y593D01*
X594Y595D01*
X592Y595D01*
X592Y599D01*
X590Y599D01*
X590Y607D01*
X588Y607D01*
X588Y617D01*
X590Y617D01*
X590Y623D01*
X592Y623D01*
X592Y627D01*
X594Y627D01*
X594Y629D01*
X596Y629D01*
X596Y633D01*
X600Y633D01*
X600Y635D01*
X602Y635D01*
X602Y637D01*
X606Y637D01*
X606Y639D01*
X610Y639D01*
X610Y641D01*
X540Y641D01*
G37*
D02*
G36*
X626Y641D02*
X626Y639D01*
X632Y639D01*
X632Y637D01*
X634Y637D01*
X634Y635D01*
X638Y635D01*
X638Y633D01*
X798Y633D01*
X798Y635D01*
X802Y635D01*
X802Y637D01*
X804Y637D01*
X804Y639D01*
X810Y639D01*
X810Y641D01*
X626Y641D01*
G37*
D02*
G36*
X636Y589D02*
X636Y587D01*
X634Y587D01*
X634Y585D01*
X630Y585D01*
X630Y583D01*
X620Y583D01*
X620Y581D01*
X816Y581D01*
X816Y583D01*
X806Y583D01*
X806Y585D01*
X802Y585D01*
X802Y587D01*
X800Y587D01*
X800Y589D01*
X636Y589D01*
G37*
D02*
G36*
X540Y581D02*
X540Y579D01*
X1080Y579D01*
X1080Y581D01*
X540Y581D01*
G37*
D02*
G36*
X540Y581D02*
X540Y579D01*
X1080Y579D01*
X1080Y581D01*
X540Y581D01*
G37*
D02*
G36*
X540Y581D02*
X540Y579D01*
X1080Y579D01*
X1080Y581D01*
X540Y581D01*
G37*
D02*
G36*
X540Y579D02*
X540Y431D01*
X542Y431D01*
X542Y427D01*
X544Y427D01*
X544Y423D01*
X546Y423D01*
X546Y417D01*
X548Y417D01*
X548Y405D01*
X546Y405D01*
X546Y399D01*
X544Y399D01*
X544Y395D01*
X542Y395D01*
X542Y393D01*
X540Y393D01*
X540Y391D01*
X538Y391D01*
X538Y389D01*
X536Y389D01*
X536Y387D01*
X534Y387D01*
X534Y385D01*
X530Y385D01*
X530Y383D01*
X520Y383D01*
X520Y381D01*
X1080Y381D01*
X1080Y383D01*
X1078Y383D01*
X1078Y385D01*
X1076Y385D01*
X1076Y389D01*
X1074Y389D01*
X1074Y393D01*
X1072Y393D01*
X1072Y399D01*
X1070Y399D01*
X1070Y423D01*
X1072Y423D01*
X1072Y431D01*
X1074Y431D01*
X1074Y435D01*
X1076Y435D01*
X1076Y437D01*
X1078Y437D01*
X1078Y441D01*
X1080Y441D01*
X1080Y443D01*
X1082Y443D01*
X1082Y445D01*
X1084Y445D01*
X1084Y447D01*
X1086Y447D01*
X1086Y449D01*
X1088Y449D01*
X1088Y451D01*
X1090Y451D01*
X1090Y473D01*
X1086Y473D01*
X1086Y475D01*
X1084Y475D01*
X1084Y477D01*
X1082Y477D01*
X1082Y479D01*
X1080Y479D01*
X1080Y483D01*
X1078Y483D01*
X1078Y485D01*
X1076Y485D01*
X1076Y489D01*
X1074Y489D01*
X1074Y493D01*
X1072Y493D01*
X1072Y499D01*
X1070Y499D01*
X1070Y523D01*
X1072Y523D01*
X1072Y531D01*
X1074Y531D01*
X1074Y535D01*
X1076Y535D01*
X1076Y537D01*
X1078Y537D01*
X1078Y541D01*
X1080Y541D01*
X1080Y543D01*
X1082Y543D01*
X1082Y545D01*
X1084Y545D01*
X1084Y547D01*
X1086Y547D01*
X1086Y549D01*
X1088Y549D01*
X1088Y551D01*
X1090Y551D01*
X1090Y573D01*
X1086Y573D01*
X1086Y575D01*
X1084Y575D01*
X1084Y577D01*
X1082Y577D01*
X1082Y579D01*
X540Y579D01*
G37*
D02*
G36*
X256Y381D02*
X256Y379D01*
X1080Y379D01*
X1080Y381D01*
X256Y381D01*
G37*
D02*
G36*
X256Y381D02*
X256Y379D01*
X1080Y379D01*
X1080Y381D01*
X256Y381D01*
G37*
D02*
G36*
X254Y379D02*
X254Y377D01*
X252Y377D01*
X252Y375D01*
X250Y375D01*
X250Y373D01*
X246Y373D01*
X246Y351D01*
X248Y351D01*
X248Y349D01*
X250Y349D01*
X250Y347D01*
X252Y347D01*
X252Y345D01*
X254Y345D01*
X254Y343D01*
X256Y343D01*
X256Y341D01*
X258Y341D01*
X258Y339D01*
X260Y339D01*
X260Y335D01*
X262Y335D01*
X262Y331D01*
X264Y331D01*
X264Y325D01*
X266Y325D01*
X266Y313D01*
X268Y313D01*
X268Y309D01*
X266Y309D01*
X266Y299D01*
X264Y299D01*
X264Y291D01*
X262Y291D01*
X262Y289D01*
X260Y289D01*
X260Y285D01*
X258Y285D01*
X258Y283D01*
X256Y283D01*
X256Y279D01*
X254Y279D01*
X254Y277D01*
X252Y277D01*
X252Y275D01*
X250Y275D01*
X250Y273D01*
X246Y273D01*
X246Y251D01*
X248Y251D01*
X248Y249D01*
X250Y249D01*
X250Y247D01*
X252Y247D01*
X252Y245D01*
X254Y245D01*
X254Y243D01*
X256Y243D01*
X256Y241D01*
X258Y241D01*
X258Y239D01*
X260Y239D01*
X260Y235D01*
X262Y235D01*
X262Y231D01*
X264Y231D01*
X264Y225D01*
X266Y225D01*
X266Y213D01*
X268Y213D01*
X268Y209D01*
X266Y209D01*
X266Y199D01*
X264Y199D01*
X264Y191D01*
X262Y191D01*
X262Y189D01*
X260Y189D01*
X260Y185D01*
X258Y185D01*
X258Y183D01*
X256Y183D01*
X256Y179D01*
X254Y179D01*
X254Y177D01*
X252Y177D01*
X252Y175D01*
X250Y175D01*
X250Y173D01*
X246Y173D01*
X246Y151D01*
X248Y151D01*
X248Y149D01*
X250Y149D01*
X250Y147D01*
X252Y147D01*
X252Y145D01*
X254Y145D01*
X254Y143D01*
X256Y143D01*
X256Y141D01*
X258Y141D01*
X258Y139D01*
X260Y139D01*
X260Y135D01*
X262Y135D01*
X262Y131D01*
X264Y131D01*
X264Y125D01*
X266Y125D01*
X266Y113D01*
X268Y113D01*
X268Y109D01*
X266Y109D01*
X266Y99D01*
X264Y99D01*
X264Y91D01*
X262Y91D01*
X262Y89D01*
X260Y89D01*
X260Y85D01*
X258Y85D01*
X258Y83D01*
X256Y83D01*
X256Y79D01*
X254Y79D01*
X254Y77D01*
X252Y77D01*
X252Y75D01*
X250Y75D01*
X250Y73D01*
X246Y73D01*
X246Y71D01*
X244Y71D01*
X244Y69D01*
X240Y69D01*
X240Y67D01*
X236Y67D01*
X236Y65D01*
X230Y65D01*
X230Y63D01*
X1106Y63D01*
X1106Y65D01*
X1100Y65D01*
X1100Y67D01*
X1096Y67D01*
X1096Y69D01*
X1092Y69D01*
X1092Y71D01*
X1090Y71D01*
X1090Y73D01*
X1086Y73D01*
X1086Y75D01*
X1084Y75D01*
X1084Y77D01*
X1082Y77D01*
X1082Y79D01*
X1080Y79D01*
X1080Y83D01*
X1078Y83D01*
X1078Y85D01*
X1076Y85D01*
X1076Y89D01*
X1074Y89D01*
X1074Y93D01*
X1072Y93D01*
X1072Y99D01*
X1070Y99D01*
X1070Y123D01*
X1072Y123D01*
X1072Y131D01*
X1074Y131D01*
X1074Y135D01*
X1076Y135D01*
X1076Y137D01*
X1078Y137D01*
X1078Y141D01*
X1080Y141D01*
X1080Y143D01*
X1082Y143D01*
X1082Y145D01*
X1084Y145D01*
X1084Y147D01*
X1086Y147D01*
X1086Y149D01*
X1088Y149D01*
X1088Y151D01*
X1090Y151D01*
X1090Y173D01*
X1086Y173D01*
X1086Y175D01*
X1084Y175D01*
X1084Y177D01*
X1082Y177D01*
X1082Y179D01*
X1080Y179D01*
X1080Y183D01*
X1078Y183D01*
X1078Y185D01*
X1076Y185D01*
X1076Y189D01*
X1074Y189D01*
X1074Y193D01*
X1072Y193D01*
X1072Y199D01*
X1070Y199D01*
X1070Y223D01*
X1072Y223D01*
X1072Y231D01*
X1074Y231D01*
X1074Y235D01*
X1076Y235D01*
X1076Y237D01*
X1078Y237D01*
X1078Y241D01*
X1080Y241D01*
X1080Y243D01*
X1082Y243D01*
X1082Y245D01*
X1084Y245D01*
X1084Y247D01*
X1086Y247D01*
X1086Y249D01*
X1088Y249D01*
X1088Y251D01*
X1090Y251D01*
X1090Y273D01*
X1086Y273D01*
X1086Y275D01*
X1084Y275D01*
X1084Y277D01*
X1082Y277D01*
X1082Y279D01*
X1080Y279D01*
X1080Y283D01*
X1078Y283D01*
X1078Y285D01*
X1076Y285D01*
X1076Y289D01*
X1074Y289D01*
X1074Y293D01*
X1072Y293D01*
X1072Y299D01*
X1070Y299D01*
X1070Y323D01*
X1072Y323D01*
X1072Y331D01*
X1074Y331D01*
X1074Y335D01*
X1076Y335D01*
X1076Y337D01*
X1078Y337D01*
X1078Y341D01*
X1080Y341D01*
X1080Y343D01*
X1082Y343D01*
X1082Y345D01*
X1084Y345D01*
X1084Y347D01*
X1086Y347D01*
X1086Y349D01*
X1088Y349D01*
X1088Y351D01*
X1090Y351D01*
X1090Y373D01*
X1086Y373D01*
X1086Y375D01*
X1084Y375D01*
X1084Y377D01*
X1082Y377D01*
X1082Y379D01*
X254Y379D01*
G37*
D02*
G36*
X158Y85D02*
X158Y83D01*
X156Y83D01*
X156Y79D01*
X154Y79D01*
X154Y77D01*
X152Y77D01*
X152Y75D01*
X150Y75D01*
X150Y73D01*
X146Y73D01*
X146Y71D01*
X144Y71D01*
X144Y69D01*
X140Y69D01*
X140Y67D01*
X136Y67D01*
X136Y65D01*
X130Y65D01*
X130Y63D01*
X206Y63D01*
X206Y65D01*
X200Y65D01*
X200Y67D01*
X196Y67D01*
X196Y69D01*
X192Y69D01*
X192Y71D01*
X190Y71D01*
X190Y73D01*
X186Y73D01*
X186Y75D01*
X184Y75D01*
X184Y77D01*
X182Y77D01*
X182Y79D01*
X180Y79D01*
X180Y83D01*
X178Y83D01*
X178Y85D01*
X158Y85D01*
G37*
D02*
G36*
X1158Y85D02*
X1158Y83D01*
X1156Y83D01*
X1156Y79D01*
X1154Y79D01*
X1154Y77D01*
X1152Y77D01*
X1152Y75D01*
X1150Y75D01*
X1150Y73D01*
X1146Y73D01*
X1146Y71D01*
X1144Y71D01*
X1144Y69D01*
X1140Y69D01*
X1140Y67D01*
X1136Y67D01*
X1136Y65D01*
X1130Y65D01*
X1130Y63D01*
X1206Y63D01*
X1206Y65D01*
X1200Y65D01*
X1200Y67D01*
X1196Y67D01*
X1196Y69D01*
X1192Y69D01*
X1192Y71D01*
X1190Y71D01*
X1190Y73D01*
X1186Y73D01*
X1186Y75D01*
X1184Y75D01*
X1184Y77D01*
X1182Y77D01*
X1182Y79D01*
X1180Y79D01*
X1180Y83D01*
X1178Y83D01*
X1178Y85D01*
X1158Y85D01*
G37*
D02*
G36*
X40Y63D02*
X40Y61D01*
X1290Y61D01*
X1290Y63D01*
X40Y63D01*
G37*
D02*
G36*
X40Y63D02*
X40Y61D01*
X1290Y61D01*
X1290Y63D01*
X40Y63D01*
G37*
D02*
G36*
X40Y63D02*
X40Y61D01*
X1290Y61D01*
X1290Y63D01*
X40Y63D01*
G37*
D02*
G36*
X40Y63D02*
X40Y61D01*
X1290Y61D01*
X1290Y63D01*
X40Y63D01*
G37*
D02*
G36*
X40Y63D02*
X40Y61D01*
X1290Y61D01*
X1290Y63D01*
X40Y63D01*
G37*
D02*
G36*
X40Y61D02*
X40Y41D01*
X1290Y41D01*
X1290Y61D01*
X40Y61D01*
G37*
D02*
G04 End of Copper0*
M02*